<?xml version="1.0" encoding="utf-8"?>
<!-- Generator: Adobe Illustrator 24.0.0, SVG Export Plug-In . SVG Version: 6.00 Build 0)  -->
<svg version="1.1" id="Layer_1" xmlns="http://www.w3.org/2000/svg" xmlns:xlink="http://www.w3.org/1999/xlink" x="0px" y="0px"
	 viewBox="0 0 17.4 12.5" style="enable-background:new 0 0 17.4 12.5;" xml:space="preserve">
<style type="text/css">
	.st0{fill:#1d9bf0;stroke:#1d9bf0;stroke-width:0.6;}
</style>
<path id="left-arrow" class="st0" d="M11.6,12c-0.3,0.2-0.6,0.2-0.8-0.1c-0.2-0.2-0.2-0.5,0-0.8l4.3-4.3H0.9c-0.3,0-0.6-0.3-0.6-0.6
	c0-0.3,0.3-0.6,0.6-0.6l0,0h14.2l-4.3-4.3c-0.2-0.2-0.2-0.6,0-0.8c0.2-0.2,0.6-0.2,0.8,0c0,0,0,0,0,0L17,5.8c0.2,0.2,0.2,0.6,0,0.8
	L11.6,12z"/>
</svg>
